<svg width="9" height="9" viewBox="0 0 9 9" fill="none" xmlns="http://www.w3.org/2000/svg">
<path d="M3.47674 1.14414C3.80399 0.285802 5.01827 0.285802 5.34552 1.14414L5.64272 1.92365C5.77922 2.28166 6.10829 2.53021 6.48999 2.56359L7.40751 2.64384C8.26962 2.71924 8.63544 3.77981 8.00315 4.37067L7.18068 5.13926C6.92295 5.3801 6.81118 5.73891 6.88653 6.08351L7.1151 7.12886C7.30723 8.00754 6.33218 8.6734 5.58368 8.17466L4.96563 7.76284C4.62983 7.53908 4.19244 7.53908 3.85663 7.76284L3.23858 8.17466C2.49009 8.6734 1.51503 8.00754 1.70716 7.12886L1.93574 6.08351C2.01109 5.73891 1.89931 5.3801 1.64158 5.13926L0.819112 4.37067C0.186823 3.77981 0.55265 2.71924 1.41475 2.64384L2.33228 2.56359C2.71398 2.53021 3.04304 2.28166 3.17954 1.92365L3.47674 1.14414Z" fill="#F3D48B" stroke="black" stroke-linejoin="round"/>
</svg>
