<svg width="49" height="42" viewBox="0 0 49 42" fill="none" xmlns="http://www.w3.org/2000/svg">
<path d="M43.6195 24.0513L28.1862 39.3057C27.163 40.3166 25.7754 40.8845 24.3286 40.8845C22.8818 40.8845 21.4942 40.3166 20.4709 39.3057L5.03765 24.054C3.76188 22.8042 2.74845 21.3178 2.05556 19.6799C1.36267 18.042 1.00397 16.285 1.00003 14.5098C0.996099 12.7346 1.34702 10.9761 2.03264 9.33521C2.71827 7.69436 3.72509 6.2035 4.99532 4.94822C6.26555 3.69293 7.77416 2.69795 9.43454 2.02039C11.0949 1.34283 12.8744 0.996045 14.6707 0.999932C16.4671 1.00382 18.245 1.35831 19.9024 2.04304C22.65 3.17821 26.0377 3.20699 28.804 2.11807C30.4216 1.48129 32.1629 1.15038 33.9373 1.16136C37.5251 1.18358 40.9595 2.60178 43.4967 5.10874C46.0339 7.6157 47.4694 11.0096 47.4924 14.5551C47.5154 18.1007 46.124 21.5124 43.6195 24.0513Z" fill="#D5CBCB" stroke="black" stroke-width="2" stroke-linecap="round" stroke-linejoin="round"/>
</svg>
