<svg width="30" height="27" viewBox="0 0 30 27" fill="none" xmlns="http://www.w3.org/2000/svg">
<path d="M26.6674 15.4488L17.3728 25.0104C16.7565 25.644 15.9209 26 15.0495 26C14.1782 26 13.3425 25.644 12.7263 25.0104L3.43166 15.4505C2.66333 14.6672 2.053 13.7354 1.63571 12.7088C1.21842 11.6821 1.00239 10.5809 1.00002 9.46813C0.997651 8.35539 1.20899 7.25314 1.6219 6.22464C2.03482 5.19614 2.64117 4.26166 3.40616 3.47484C4.17115 2.68801 5.0797 2.06435 6.07966 1.63965C7.07962 1.21495 8.15129 0.997582 9.23314 1.00002C10.315 1.00245 11.3857 1.22465 12.3839 1.65385C14.0305 2.36189 16.0879 2.37922 17.7467 1.70011C18.7203 1.30148 19.7684 1.09432 20.8363 1.10121C22.997 1.11513 25.0654 2.00407 26.5934 3.57546C28.1214 5.14684 28.986 7.27414 28.9998 9.49653C29.0137 11.7189 28.1757 13.8574 26.6674 15.4488Z" fill="#D5CBCB" stroke="black" stroke-width="2" stroke-linecap="round" stroke-linejoin="round"/>
</svg>
